  0
SECTION
  2
HEADER
  9
$ANGBASE
  50
0.0
  9
$ANGDIR
  70
  1
  9
$MEASUREMENT
  70
0
  0
ENDSEC
  0
SECTION
  2
TABLES
  0
TABLE
  2
LTYPE
  70
1
  0
LTYPE
  2
CONTINUOUS
  70
0
  3
Solid line
  72
65
  73
0
  40
0.0
  0
ENDTAB
  0
TABLE
  2
STYLE
  70
4
  0
STYLE
  2
KICAD
  70
0
  40
0
  41
1
  42
1
  50
0
  71
0
  3
isocp.shx
  0
STYLE
  2
KICADB
  70
0
  40
0
  41
1
  42
1
  50
0
  71
0
  3
isocp.shx
  0
STYLE
  2
KICADI
  70
0
  40
0
  41
1
  42
1
  50
15
  71
0
  3
isocp.shx
  0
STYLE
  2
KICADBI
  70
0
  40
0
  41
1
  42
1
  50
15
  71
0
  3
isocp.shx
  0
ENDTAB
  0
TABLE
  2
LAYER
  70
30
  0
LAYER
  2
BLACK
  70
0
  62
7
  6
CONTINUOUS
  0
LAYER
  2
GRAY1
  70
0
  62
251
  6
CONTINUOUS
  0
LAYER
  2
GRAY2
  70
0
  62
8
  6
CONTINUOUS
  0
LAYER
  2
GRAY3
  70
0
  62
9
  6
CONTINUOUS
  0
LAYER
  2
WHITE
  70
0
  62
7
  6
CONTINUOUS
  0
LAYER
  2
LYELLOW
  70
0
  62
51
  6
CONTINUOUS
  0
LAYER
  2
BLUE1
  70
0
  62
178
  6
CONTINUOUS
  0
LAYER
  2
GREEN1
  70
0
  62
98
  6
CONTINUOUS
  0
LAYER
  2
CYAN1
  70
0
  62
138
  6
CONTINUOUS
  0
LAYER
  2
RED1
  70
0
  62
18
  6
CONTINUOUS
  0
LAYER
  2
MAGENTA1
  70
0
  62
228
  6
CONTINUOUS
  0
LAYER
  2
BROWN1
  70
0
  62
58
  6
CONTINUOUS
  0
LAYER
  2
BLUE2
  70
0
  62
5
  6
CONTINUOUS
  0
LAYER
  2
GREEN2
  70
0
  62
3
  6
CONTINUOUS
  0
LAYER
  2
CYAN2
  70
0
  62
4
  6
CONTINUOUS
  0
LAYER
  2
RED2
  70
0
  62
1
  6
CONTINUOUS
  0
LAYER
  2
MAGENTA2
  70
0
  62
6
  6
CONTINUOUS
  0
LAYER
  2
BROWN2
  70
0
  62
54
  6
CONTINUOUS
  0
LAYER
  2
BLUE3
  70
0
  62
171
  6
CONTINUOUS
  0
LAYER
  2
GREEN3
  70
0
  62
91
  6
CONTINUOUS
  0
LAYER
  2
CYAN3
  70
0
  62
131
  6
CONTINUOUS
  0
LAYER
  2
RED3
  70
0
  62
11
  6
CONTINUOUS
  0
LAYER
  2
MAGENTA3
  70
0
  62
221
  6
CONTINUOUS
  0
LAYER
  2
YELLOW3
  70
0
  62
2
  6
CONTINUOUS
  0
LAYER
  2
BLUE4
  70
0
  62
5
  6
CONTINUOUS
  0
LAYER
  2
GREEN4
  70
0
  62
3
  6
CONTINUOUS
  0
LAYER
  2
CYAN4
  70
0
  62
4
  6
CONTINUOUS
  0
LAYER
  2
RED4
  70
0
  62
1
  6
CONTINUOUS
  0
LAYER
  2
MAGENTA4
  70
0
  62
6
  6
CONTINUOUS
  0
LAYER
  2
YELLOW4
  70
0
  62
2
  6
CONTINUOUS
  0
ENDTAB
  0
ENDSEC
  0
SECTION
  2
ENTITIES
0
LINE
8
Black
10
94.8457
20
-96.2492
11
94.8413
21
-96.2496
0
LINE
8
Black
10
94.8413
20
-96.2496
11
94.8287
21
-96.2462
0
LINE
8
Black
10
94.8287
20
-96.2462
11
94.8158
21
-96.244
0
LINE
8
Black
10
94.8158
20
-96.244
11
94.812
21
-96.2418
0
LINE
8
Black
10
94.812
20
-96.2418
11
94.8077
21
-96.2406
0
LINE
8
Black
10
94.8077
20
-96.2406
11
94.797
21
-96.2331
0
LINE
8
Black
10
94.797
20
-96.2331
11
94.7857
21
-96.2266
0
LINE
8
Black
10
94.7857
20
-96.2266
11
94.7829
21
-96.2232
0
LINE
8
Black
10
94.7829
20
-96.2232
11
94.7793
21
-96.2207
0
LINE
8
Black
10
94.7793
20
-96.2207
11
93.8793
21
-95.3207
0
LINE
8
Black
10
93.8793
20
-95.3207
11
93.8768
21
-95.3171
0
LINE
8
Black
10
93.8768
20
-95.3171
11
93.8734
21
-95.3143
0
LINE
8
Black
10
93.8734
20
-95.3143
11
93.8669
21
-95.303
0
LINE
8
Black
10
93.8669
20
-95.303
11
93.8594
21
-95.2923
0
LINE
8
Black
10
93.8594
20
-95.2923
11
93.8582
21
-95.288
0
LINE
8
Black
10
93.8582
20
-95.288
11
93.856
21
-95.2842
0
LINE
8
Black
10
93.856
20
-95.2842
11
93.8538
21
-95.2713
0
LINE
8
Black
10
93.8538
20
-95.2713
11
93.8504
21
-95.2587
0
LINE
8
Black
10
93.8504
20
-95.2587
11
93.8508
21
-95.2543
0
LINE
8
Black
10
93.8508
20
-95.2543
11
93.85
21
-95.25
0
LINE
8
Black
10
93.85
20
-95.25
11
93.85
21
-75.15
0
LINE
8
Black
10
93.85
20
-75.15
11
93.8508
21
-75.1457
0
LINE
8
Black
10
93.8508
20
-75.1457
11
93.8504
21
-75.1413
0
LINE
8
Black
10
93.8504
20
-75.1413
11
93.8538
21
-75.1287
0
LINE
8
Black
10
93.8538
20
-75.1287
11
93.856
21
-75.1158
0
LINE
8
Black
10
93.856
20
-75.1158
11
93.8582
21
-75.112
0
LINE
8
Black
10
93.8582
20
-75.112
11
93.8594
21
-75.1077
0
LINE
8
Black
10
93.8594
20
-75.1077
11
93.8669
21
-75.097
0
LINE
8
Black
10
93.8669
20
-75.097
11
93.8734
21
-75.0857
0
LINE
8
Black
10
93.8734
20
-75.0857
11
93.8768
21
-75.0829
0
LINE
8
Black
10
93.8768
20
-75.0829
11
93.8793
21
-75.0793
0
LINE
8
Black
10
93.8793
20
-75.0793
11
95.1293
21
-73.8293
0
LINE
8
Black
10
95.1293
20
-73.8293
11
95.1329
21
-73.8268
0
LINE
8
Black
10
95.1329
20
-73.8268
11
95.1357
21
-73.8234
0
LINE
8
Black
10
95.1357
20
-73.8234
11
95.147
21
-73.8169
0
LINE
8
Black
10
95.147
20
-73.8169
11
95.1577
21
-73.8094
0
LINE
8
Black
10
95.1577
20
-73.8094
11
95.162
21
-73.8082
0
LINE
8
Black
10
95.162
20
-73.8082
11
95.1658
21
-73.806
0
LINE
8
Black
10
95.1658
20
-73.806
11
95.1787
21
-73.8038
0
LINE
8
Black
10
95.1787
20
-73.8038
11
95.1913
21
-73.8004
0
LINE
8
Black
10
95.1913
20
-73.8004
11
95.1957
21
-73.8008
0
LINE
8
Black
10
95.1957
20
-73.8008
11
95.2
21
-73.8
0
LINE
8
Black
10
95.2
20
-73.8
11
95.5
21
-73.8
0
LINE
8
Black
10
95.5
20
-73.8
11
98.6648
21
-73.8
0
LINE
8
Black
10
98.6648
20
-73.8
11
98.6793
21
-73.7793
0
LINE
8
Black
10
98.6793
20
-73.7793
11
110.579
21
-61.8793
0
LINE
8
Black
10
110.579
20
-61.8793
11
110.583
21
-61.8768
0
LINE
8
Black
10
110.583
20
-61.8768
11
110.586
21
-61.8734
0
LINE
8
Black
10
110.586
20
-61.8734
11
110.597
21
-61.8669
0
LINE
8
Black
10
110.597
20
-61.8669
11
110.608
21
-61.8594
0
LINE
8
Black
10
110.608
20
-61.8594
11
110.612
21
-61.8582
0
LINE
8
Black
10
110.612
20
-61.8582
11
110.616
21
-61.856
0
LINE
8
Black
10
110.616
20
-61.856
11
110.629
21
-61.8538
0
LINE
8
Black
10
110.629
20
-61.8538
11
110.641
21
-61.8504
0
LINE
8
Black
10
110.641
20
-61.8504
11
110.646
21
-61.8508
0
LINE
8
Black
10
110.646
20
-61.8508
11
110.65
21
-61.85
0
LINE
8
Black
10
110.65
20
-61.85
11
158.6
21
-61.85
0
LINE
8
Black
10
158.6
20
-61.85
11
158.604
21
-61.8508
0
LINE
8
Black
10
158.604
20
-61.8508
11
158.609
21
-61.8504
0
LINE
8
Black
10
158.609
20
-61.8504
11
158.621
21
-61.8538
0
LINE
8
Black
10
158.621
20
-61.8538
11
158.634
21
-61.856
0
LINE
8
Black
10
158.634
20
-61.856
11
158.638
21
-61.8582
0
LINE
8
Black
10
158.638
20
-61.8582
11
158.642
21
-61.8594
0
LINE
8
Black
10
158.642
20
-61.8594
11
158.653
21
-61.8669
0
LINE
8
Black
10
158.653
20
-61.8669
11
158.664
21
-61.8734
0
LINE
8
Black
10
158.664
20
-61.8734
11
158.667
21
-61.8768
0
LINE
8
Black
10
158.667
20
-61.8768
11
158.671
21
-61.8793
0
LINE
8
Black
10
158.671
20
-61.8793
11
170.691
21
-73.9
0
LINE
8
Black
10
170.691
20
-73.9
11
174.75
21
-73.9
0
LINE
8
Black
10
174.75
20
-73.9
11
174.754
21
-73.9008
0
LINE
8
Black
10
174.754
20
-73.9008
11
174.759
21
-73.9004
0
LINE
8
Black
10
174.759
20
-73.9004
11
174.771
21
-73.9038
0
LINE
8
Black
10
174.771
20
-73.9038
11
174.784
21
-73.906
0
LINE
8
Black
10
174.784
20
-73.906
11
174.788
21
-73.9082
0
LINE
8
Black
10
174.788
20
-73.9082
11
174.792
21
-73.9094
0
LINE
8
Black
10
174.792
20
-73.9094
11
174.803
21
-73.9169
0
LINE
8
Black
10
174.803
20
-73.9169
11
174.814
21
-73.9234
0
LINE
8
Black
10
174.814
20
-73.9234
11
174.817
21
-73.9268
0
LINE
8
Black
10
174.817
20
-73.9268
11
174.821
21
-73.9293
0
LINE
8
Black
10
174.821
20
-73.9293
11
176.171
21
-75.2793
0
LINE
8
Black
10
176.171
20
-75.2793
11
176.173
21
-75.2829
0
LINE
8
Black
10
176.173
20
-75.2829
11
176.177
21
-75.2857
0
LINE
8
Black
10
176.177
20
-75.2857
11
176.183
21
-75.297
0
LINE
8
Black
10
176.183
20
-75.297
11
176.191
21
-75.3077
0
LINE
8
Black
10
176.191
20
-75.3077
11
176.192
21
-75.312
0
LINE
8
Black
10
176.192
20
-75.312
11
176.194
21
-75.3158
0
LINE
8
Black
10
176.194
20
-75.3158
11
176.196
21
-75.3287
0
LINE
8
Black
10
176.196
20
-75.3287
11
176.2
21
-75.3413
0
LINE
8
Black
10
176.2
20
-75.3413
11
176.199
21
-75.3457
0
LINE
8
Black
10
176.199
20
-75.3457
11
176.2
21
-75.35
0
LINE
8
Black
10
176.2
20
-75.35
11
176.2
21
-75.85
0
LINE
8
Black
10
176.2
20
-75.85
11
176.2
21
-95.2
0
LINE
8
Black
10
176.2
20
-95.2
11
176.199
21
-95.2043
0
LINE
8
Black
10
176.199
20
-95.2043
11
176.2
21
-95.2087
0
LINE
8
Black
10
176.2
20
-95.2087
11
176.196
21
-95.2213
0
LINE
8
Black
10
176.196
20
-95.2213
11
176.194
21
-95.2342
0
LINE
8
Black
10
176.194
20
-95.2342
11
176.192
21
-95.238
0
LINE
8
Black
10
176.192
20
-95.238
11
176.191
21
-95.2423
0
LINE
8
Black
10
176.191
20
-95.2423
11
176.183
21
-95.253
0
LINE
8
Black
10
176.183
20
-95.253
11
176.177
21
-95.2643
0
LINE
8
Black
10
176.177
20
-95.2643
11
176.173
21
-95.2671
0
LINE
8
Black
10
176.173
20
-95.2671
11
176.171
21
-95.2707
0
LINE
8
Black
10
176.171
20
-95.2707
11
175.221
21
-96.2207
0
LINE
8
Black
10
175.221
20
-96.2207
11
175.217
21
-96.2232
0
LINE
8
Black
10
175.217
20
-96.2232
11
175.214
21
-96.2266
0
LINE
8
Black
10
175.214
20
-96.2266
11
175.203
21
-96.2331
0
LINE
8
Black
10
175.203
20
-96.2331
11
175.192
21
-96.2406
0
LINE
8
Black
10
175.192
20
-96.2406
11
175.188
21
-96.2418
0
LINE
8
Black
10
175.188
20
-96.2418
11
175.184
21
-96.244
0
LINE
8
Black
10
175.184
20
-96.244
11
175.171
21
-96.2462
0
LINE
8
Black
10
175.171
20
-96.2462
11
175.159
21
-96.2496
0
LINE
8
Black
10
175.159
20
-96.2496
11
175.154
21
-96.2492
0
LINE
8
Black
10
175.154
20
-96.2492
11
175.15
21
-96.25
0
LINE
8
Black
10
175.15
20
-96.25
11
170.65
21
-96.25
0
LINE
8
Black
10
170.65
20
-96.25
11
170.65
21
-109.1
0
LINE
8
Black
10
170.65
20
-109.1
11
170.649
21
-109.104
0
LINE
8
Black
10
170.649
20
-109.104
11
170.65
21
-109.109
0
LINE
8
Black
10
170.65
20
-109.109
11
170.646
21
-109.121
0
LINE
8
Black
10
170.646
20
-109.121
11
170.644
21
-109.134
0
LINE
8
Black
10
170.644
20
-109.134
11
170.642
21
-109.138
0
LINE
8
Black
10
170.642
20
-109.138
11
170.641
21
-109.142
0
LINE
8
Black
10
170.641
20
-109.142
11
170.633
21
-109.153
0
LINE
8
Black
10
170.633
20
-109.153
11
170.627
21
-109.164
0
LINE
8
Black
10
170.627
20
-109.164
11
170.623
21
-109.167
0
LINE
8
Black
10
170.623
20
-109.167
11
170.621
21
-109.171
0
LINE
8
Black
10
170.621
20
-109.171
11
169.871
21
-109.921
0
LINE
8
Black
10
169.871
20
-109.921
11
169.867
21
-109.923
0
LINE
8
Black
10
169.867
20
-109.923
11
169.864
21
-109.927
0
LINE
8
Black
10
169.864
20
-109.927
11
169.853
21
-109.933
0
LINE
8
Black
10
169.853
20
-109.933
11
169.842
21
-109.941
0
LINE
8
Black
10
169.842
20
-109.941
11
169.838
21
-109.942
0
LINE
8
Black
10
169.838
20
-109.942
11
169.834
21
-109.944
0
LINE
8
Black
10
169.834
20
-109.944
11
169.821
21
-109.946
0
LINE
8
Black
10
169.821
20
-109.946
11
169.809
21
-109.95
0
LINE
8
Black
10
169.809
20
-109.95
11
169.804
21
-109.949
0
LINE
8
Black
10
169.804
20
-109.949
11
169.8
21
-109.95
0
LINE
8
Black
10
169.8
20
-109.95
11
99.65
21
-109.95
0
LINE
8
Black
10
99.65
20
-109.95
11
99.6457
21
-109.949
0
LINE
8
Black
10
99.6457
20
-109.949
11
99.6413
21
-109.95
0
LINE
8
Black
10
99.6413
20
-109.95
11
99.6287
21
-109.946
0
LINE
8
Black
10
99.6287
20
-109.946
11
99.6158
21
-109.944
0
LINE
8
Black
10
99.6158
20
-109.944
11
99.612
21
-109.942
0
LINE
8
Black
10
99.612
20
-109.942
11
99.6077
21
-109.941
0
LINE
8
Black
10
99.6077
20
-109.941
11
99.597
21
-109.933
0
LINE
8
Black
10
99.597
20
-109.933
11
99.5857
21
-109.927
0
LINE
8
Black
10
99.5857
20
-109.927
11
99.5829
21
-109.923
0
LINE
8
Black
10
99.5829
20
-109.923
11
99.5793
21
-109.921
0
LINE
8
Black
10
99.5793
20
-109.921
11
98.7793
21
-109.121
0
LINE
8
Black
10
98.7793
20
-109.121
11
98.7768
21
-109.117
0
LINE
8
Black
10
98.7768
20
-109.117
11
98.7734
21
-109.114
0
LINE
8
Black
10
98.7734
20
-109.114
11
98.7669
21
-109.103
0
LINE
8
Black
10
98.7669
20
-109.103
11
98.7594
21
-109.092
0
LINE
8
Black
10
98.7594
20
-109.092
11
98.7582
21
-109.088
0
LINE
8
Black
10
98.7582
20
-109.088
11
98.756
21
-109.084
0
LINE
8
Black
10
98.756
20
-109.084
11
98.7538
21
-109.071
0
LINE
8
Black
10
98.7538
20
-109.071
11
98.7504
21
-109.059
0
LINE
8
Black
10
98.7504
20
-109.059
11
98.7508
21
-109.054
0
LINE
8
Black
10
98.7508
20
-109.054
11
98.75
21
-109.05
0
LINE
8
Black
10
98.75
20
-109.05
11
98.75
21
-96.25
0
LINE
8
Black
10
98.75
20
-96.25
11
95.15
21
-96.25
0
LINE
8
Black
10
95.15
20
-96.25
11
94.85
21
-96.25
0
LINE
8
Black
10
94.85
20
-96.25
11
94.8457
21
-96.2492
0
LINE
8
Black
10
94.05
20
-75.1914
11
94.05
21
-95.2086
0
LINE
8
Black
10
94.05
20
-95.2086
11
94.8914
21
-96.05
0
LINE
8
Black
10
94.8914
20
-96.05
11
95.15
21
-96.05
0
LINE
8
Black
10
95.15
20
-96.05
11
98.85
21
-96.05
0
LINE
8
Black
10
98.85
20
-96.05
11
98.8586
21
-96.0515
0
LINE
8
Black
10
98.8586
20
-96.0515
11
98.8674
21
-96.0515
0
LINE
8
Black
10
98.8674
20
-96.0515
11
98.8756
21
-96.0545
0
LINE
8
Black
10
98.8756
20
-96.0545
11
98.8842
21
-96.056
0
LINE
8
Black
10
98.8842
20
-96.056
11
98.8918
21
-96.0604
0
LINE
8
Black
10
98.8918
20
-96.0604
11
98.9
21
-96.0634
0
LINE
8
Black
10
98.9
20
-96.0634
11
98.9067
21
-96.069
0
LINE
8
Black
10
98.9067
20
-96.069
11
98.9143
21
-96.0734
0
LINE
8
Black
10
98.9143
20
-96.0734
11
98.9199
21
-96.0801
0
LINE
8
Black
10
98.9199
20
-96.0801
11
98.9266
21
-96.0857
0
LINE
8
Black
10
98.9266
20
-96.0857
11
98.931
21
-96.0933
0
LINE
8
Black
10
98.931
20
-96.0933
11
98.9366
21
-96.1
0
LINE
8
Black
10
98.9366
20
-96.1
11
98.9396
21
-96.1082
0
LINE
8
Black
10
98.9396
20
-96.1082
11
98.944
21
-96.1158
0
LINE
8
Black
10
98.944
20
-96.1158
11
98.9455
21
-96.1244
0
LINE
8
Black
10
98.9455
20
-96.1244
11
98.9485
21
-96.1326
0
LINE
8
Black
10
98.9485
20
-96.1326
11
98.9485
21
-96.1414
0
LINE
8
Black
10
98.9485
20
-96.1414
11
98.95
21
-96.15
0
LINE
8
Black
10
98.95
20
-96.15
11
98.95
21
-109.009
0
LINE
8
Black
10
98.95
20
-109.009
11
99.6914
21
-109.75
0
LINE
8
Black
10
99.6914
20
-109.75
11
169.759
21
-109.75
0
LINE
8
Black
10
169.759
20
-109.75
11
170.45
21
-109.059
0
LINE
8
Black
10
170.45
20
-109.059
11
170.45
21
-96.15
0
LINE
8
Black
10
170.45
20
-96.15
11
170.452
21
-96.1414
0
LINE
8
Black
10
170.452
20
-96.1414
11
170.452
21
-96.1326
0
LINE
8
Black
10
170.452
20
-96.1326
11
170.455
21
-96.1244
0
LINE
8
Black
10
170.455
20
-96.1244
11
170.456
21
-96.1158
0
LINE
8
Black
10
170.456
20
-96.1158
11
170.46
21
-96.1082
0
LINE
8
Black
10
170.46
20
-96.1082
11
170.463
21
-96.1
0
LINE
8
Black
10
170.463
20
-96.1
11
170.469
21
-96.0933
0
LINE
8
Black
10
170.469
20
-96.0933
11
170.473
21
-96.0857
0
LINE
8
Black
10
170.473
20
-96.0857
11
170.48
21
-96.0801
0
LINE
8
Black
10
170.48
20
-96.0801
11
170.486
21
-96.0734
0
LINE
8
Black
10
170.486
20
-96.0734
11
170.493
21
-96.069
0
LINE
8
Black
10
170.493
20
-96.069
11
170.5
21
-96.0634
0
LINE
8
Black
10
170.5
20
-96.0634
11
170.508
21
-96.0604
0
LINE
8
Black
10
170.508
20
-96.0604
11
170.516
21
-96.056
0
LINE
8
Black
10
170.516
20
-96.056
11
170.524
21
-96.0545
0
LINE
8
Black
10
170.524
20
-96.0545
11
170.533
21
-96.0515
0
LINE
8
Black
10
170.533
20
-96.0515
11
170.541
21
-96.0515
0
LINE
8
Black
10
170.541
20
-96.0515
11
170.55
21
-96.05
0
LINE
8
Black
10
170.55
20
-96.05
11
175.109
21
-96.05
0
LINE
8
Black
10
175.109
20
-96.05
11
176
21
-95.1586
0
LINE
8
Black
10
176
20
-95.1586
11
176
21
-75.85
0
LINE
8
Black
10
176
20
-75.85
11
176
21
-75.3914
0
LINE
8
Black
10
176
20
-75.3914
11
174.709
21
-74.1
0
LINE
8
Black
10
174.709
20
-74.1
11
170.65
21
-74.1
0
LINE
8
Black
10
170.65
20
-74.1
11
170.646
21
-74.0992
0
LINE
8
Black
10
170.646
20
-74.0992
11
170.641
21
-74.0996
0
LINE
8
Black
10
170.641
20
-74.0996
11
170.629
21
-74.0962
0
LINE
8
Black
10
170.629
20
-74.0962
11
170.616
21
-74.094
0
LINE
8
Black
10
170.616
20
-74.094
11
170.612
21
-74.0918
0
LINE
8
Black
10
170.612
20
-74.0918
11
170.608
21
-74.0906
0
LINE
8
Black
10
170.608
20
-74.0906
11
170.597
21
-74.0831
0
LINE
8
Black
10
170.597
20
-74.0831
11
170.586
21
-74.0766
0
LINE
8
Black
10
170.586
20
-74.0766
11
170.583
21
-74.0732
0
LINE
8
Black
10
170.583
20
-74.0732
11
170.579
21
-74.0707
0
LINE
8
Black
10
170.579
20
-74.0707
11
158.559
21
-62.05
0
LINE
8
Black
10
158.559
20
-62.05
11
110.691
21
-62.05
0
LINE
8
Black
10
110.691
20
-62.05
11
98.8485
21
-73.8929
0
LINE
8
Black
10
98.8485
20
-73.8929
11
98.8485
21
-73.9174
0
LINE
8
Black
10
98.8485
20
-73.9174
11
98.8366
21
-73.95
0
LINE
8
Black
10
98.8366
20
-73.95
11
98.8143
21
-73.9766
0
LINE
8
Black
10
98.8143
20
-73.9766
11
98.7842
21
-73.994
0
LINE
8
Black
10
98.7842
20
-73.994
11
98.75
21
-74
0
LINE
8
Black
10
98.75
20
-74
11
95.5
21
-74
0
LINE
8
Black
10
95.5
20
-74
11
95.2414
21
-74
0
LINE
8
Black
10
95.2414
20
-74
11
94.05
21
-75.1914
  0
ENDSEC
  0
EOF
